<svg xmlns="http://www.w3.org/2000/svg" viewBox="0 0 540 500" height="500" width="540">
  <defs>
    <style>
      @keyframes leapForward {
        0%, 75%  { transform: translateY(0); }
        85%      { transform: translateY(-12px); }
        100%     { transform: translateY(0); }
      }

      
      /* Animation chân trước - nghỉ xòe rộng cao lên, bổ nhanh ra ngoài xuống */
      @keyframes leftFrontOuter {
        0%, 80%   { transform: rotate(145deg); }
        88%       { transform: rotate(-55deg); }
        95%       { transform: rotate(-45deg); }
        100%      { transform: rotate(145deg); }
      }

      @keyframes leftFrontInner {
        0%, 80%   { transform: rotate(130deg); }
        88%       { transform: rotate(-45deg); }
        95%       { transform: rotate(-35deg); }
        100%      { transform: rotate(130deg); }
      }

      @keyframes rightFrontOuter {
        0%, 80%   { transform: rotate(-145deg); }
        88%       { transform: rotate(55deg); }
        95%       { transform: rotate(45deg); }
        100%      { transform: rotate(-145deg); }
      }

      @keyframes rightFrontInner {
        0%, 80%   { transform: rotate(-130deg); }
        88%       { transform: rotate(45deg); }
        95%       { transform: rotate(35deg); }
        100%      { transform: rotate(-130deg); }
      }

      @keyframes mouthOpen {
        0%, 75%   { transform: rotate(0deg); }
        83%       { transform: rotate(30deg); }
        91%       { transform: rotate(10deg); }
        100%      { transform: rotate(0deg); }
      }

      .spider-body       { animation: leapForward 2s infinite ease-in-out; }
      .mouth             { animation: mouthOpen 2s infinite ease-in-out; transform-origin: 270px 315px; }

      .left-front-outer  { animation: leftFrontOuter 2s infinite ease-in; transform-origin: 235px 320px; }
      .left-front-inner  { animation: leftFrontInner 2s infinite ease-in; transform-origin: 235px 328px; animation-delay: 0.05s; }
      .right-front-outer { animation: rightFrontOuter 2s infinite ease-in; transform-origin: 305px 320px; animation-delay: 0.03s; }
      .right-front-inner { animation: rightFrontInner 2s infinite ease-in; transform-origin: 305px 328px; animation-delay: 0.08s; }
    </style>
  </defs>

  <!-- Bóng đổ -->
  <ellipse opacity="0.72" fill="#1A0000" ry="27" rx="120" cy="447" cx="270"></ellipse>

  <!-- ===== TẤT CẢ CHÂN VẼ TRƯỚC (layer dưới) ===== -->

  <!-- Chân sau trái 1 (ngoài cùng) -->
  <g>
    <path stroke-linecap="round" stroke-width="17" stroke="#9B0000" fill="none" d="M235 300 Q160 270 125 300"></path>
    <path stroke-linecap="round" stroke-width="13" stroke="#B30000" fill="none" d="M125 300 Q90 315 100 360"></path>
    <path stroke-linecap="round" stroke-width="11" stroke="#B30000" fill="none" d="M100 360 Q85 390 100 418"></path>
  </g>

  <!-- Chân sau trái 2 -->
  <g>
    <path stroke-linecap="round" stroke-width="17" stroke="#9B0000" fill="none" d="M235 308 Q168 285 138 318"></path>
    <path stroke-linecap="round" stroke-width="13" stroke="#B30000" fill="none" d="M138 318 Q105 335 118 378"></path>
    <path stroke-linecap="round" stroke-width="11" stroke="#B30000" fill="none" d="M118 378 Q105 405 120 430"></path>
  </g>

  <!-- Chân sau trái 3 -->
  <g>
    <path stroke-linecap="round" stroke-width="17" stroke="#9B0000" fill="none" d="M235 316 Q175 305 150 338"></path>
    <path stroke-linecap="round" stroke-width="13" stroke="#B30000" fill="none" d="M150 338 Q120 358 135 398"></path>
    <path stroke-linecap="round" stroke-width="11" stroke="#B30000" fill="none" d="M135 398 Q122 422 138 445"></path>
  </g>

  <!-- Chân sau trái 4 -->
  <g>
    <path stroke-linecap="round" stroke-width="17" stroke="#9B0000" fill="none" d="M235 324 Q182 318 162 352"></path>
    <path stroke-linecap="round" stroke-width="13" stroke="#B30000" fill="none" d="M162 352 Q135 374 150 412"></path>
    <path stroke-linecap="round" stroke-width="11" stroke="#B30000" fill="none" d="M150 412 Q138 435 154 455"></path>
  </g>

  <!-- Chân sau phải 1 (ngoài cùng) -->
  <g>
    <path stroke-linecap="round" stroke-width="17" stroke="#9B0000" fill="none" d="M305 300 Q380 270 415 300"></path>
    <path stroke-linecap="round" stroke-width="13" stroke="#B30000" fill="none" d="M415 300 Q450 315 440 360"></path>
    <path stroke-linecap="round" stroke-width="11" stroke="#B30000" fill="none" d="M440 360 Q455 390 440 418"></path>
  </g>

  <!-- Chân sau phải 2 -->
  <g>
    <path stroke-linecap="round" stroke-width="17" stroke="#9B0000" fill="none" d="M305 308 Q372 285 402 318"></path>
    <path stroke-linecap="round" stroke-width="13" stroke="#B30000" fill="none" d="M402 318 Q435 335 422 378"></path>
    <path stroke-linecap="round" stroke-width="11" stroke="#B30000" fill="none" d="M422 378 Q435 405 420 430"></path>
  </g>

  <!-- Chân sau phải 3 -->
  <g>
    <path stroke-linecap="round" stroke-width="17" stroke="#9B0000" fill="none" d="M305 316 Q365 305 390 338"></path>
    <path stroke-linecap="round" stroke-width="13" stroke="#B30000" fill="none" d="M390 338 Q420 358 405 398"></path>
    <path stroke-linecap="round" stroke-width="11" stroke="#B30000" fill="none" d="M405 398 Q418 422 402 445"></path>
  </g>

  <!-- Chân sau phải 4 -->
  <g>
    <path stroke-linecap="round" stroke-width="17" stroke="#9B0000" fill="none" d="M305 324 Q358 318 378 352"></path>
    <path stroke-linecap="round" stroke-width="13" stroke="#B30000" fill="none" d="M378 352 Q405 374 390 412"></path>
    <path stroke-linecap="round" stroke-width="11" stroke="#B30000" fill="none" d="M390 412 Q402 435 386 455"></path>
  </g>

  <!-- Chân trước trái 1 (ngoài) - có animation -->
  <g class="left-front-outer">
    <path stroke-linecap="round" stroke-width="17" stroke="#9B0000" fill="none" d="M235 320 Q185 310 155 335"></path>
    <path stroke-linecap="round" stroke-width="13" stroke="#B30000" fill="none" d="M155 335 Q120 320 125 365"></path>
    <path stroke-linecap="round" stroke-width="11" stroke="#B30000" fill="none" d="M125 365 Q105 390 120 420"></path>
  </g>

  <!-- Chân trước trái 2 (trong) - có animation -->
  <g class="left-front-inner">
    <path stroke-linecap="round" stroke-width="17" stroke="#9B0000" fill="none" d="M235 328 Q190 322 165 348"></path>
    <path stroke-linecap="round" stroke-width="13" stroke="#B30000" fill="none" d="M165 348 Q133 336 140 378"></path>
    <path stroke-linecap="round" stroke-width="11" stroke="#B30000" fill="none" d="M140 378 Q122 402 138 430"></path>
  </g>

  <!-- Chân trước phải 1 (ngoài) - có animation -->
  <g class="right-front-outer">
    <path stroke-linecap="round" stroke-width="17" stroke="#9B0000" fill="none" d="M305 320 Q355 310 385 335"></path>
    <path stroke-linecap="round" stroke-width="13" stroke="#B30000" fill="none" d="M385 335 Q420 320 415 365"></path>
    <path stroke-linecap="round" stroke-width="11" stroke="#B30000" fill="none" d="M415 365 Q435 390 420 420"></path>
  </g>

  <!-- Chân trước phải 2 (trong) - có animation -->
  <g class="right-front-inner">
    <path stroke-linecap="round" stroke-width="17" stroke="#9B0000" fill="none" d="M305 328 Q350 322 375 348"></path>
    <path stroke-linecap="round" stroke-width="13" stroke="#B30000" fill="none" d="M375 348 Q407 336 400 378"></path>
    <path stroke-linecap="round" stroke-width="11" stroke="#B30000" fill="none" d="M400 378 Q418 402 402 430"></path>
  </g>

  <!-- ===== THÂN & ĐẦU VẼ SAU (layer trên) ===== -->
  <g class="spider-body">
    <ellipse fill="#C8102E" ry="74" rx="92" cy="167" cx="270"></ellipse>
    <ellipse fill="#E0223A" ry="55" rx="70" cy="167" cx="270"></ellipse>
    <path stroke-linecap="round" stroke-width="20" stroke="#FF6600" fill="none" d="M190 137 Q270 102 350 137"></path>
    <path stroke-linecap="round" stroke-width="14" stroke="#FFAA33" fill="none" d="M200 157 Q270 127 340 157"></path>
    <ellipse fill="#C8102E" ry="58" rx="68" cy="262" cx="270"></ellipse>
  </g>

  <!-- Miệng -->
  <g class="mouth">
    <path stroke-linecap="round" stroke-width="14" stroke="#9B0000" fill="none" d="M245 300 Q217 307 208 342"></path>
    <path stroke-linecap="round" stroke-width="11" stroke="#B30000" fill="none" d="M208 342 Q204 360 216 374"></path>
    <circle fill="#FFCC33" r="9.5" cy="374" cx="216"></circle>

    <path stroke-linecap="round" stroke-width="14" stroke="#9B0000" fill="none" d="M295 300 Q323 307 332 342"></path>
    <path stroke-linecap="round" stroke-width="11" stroke="#B30000" fill="none" d="M332 342 Q336 360 324 374"></path>
    <circle fill="#FFCC33" r="9.5" cy="374" cx="324"></circle>
  </g>

  <!-- Mắt -->
  <ellipse fill="#FFEE99" ry="29" rx="24" cy="244" cx="225"></ellipse>
  <ellipse fill="#1A1A1A" ry="18.5" rx="14" cy="243" cx="231"></ellipse>
  <circle fill="#FFFFFF" r="6.8" cy="238" cx="238"></circle>

  <ellipse fill="#FFEE99" ry="29" rx="24" cy="244" cx="315"></ellipse>
  <ellipse fill="#1A1A1A" ry="18.5" rx="14" cy="243" cx="309"></ellipse>
  <circle fill="#FFFFFF" r="6.8" cy="238" cx="302"></circle>

  <!-- Mắt nhỏ -->
  <ellipse fill="#FFCC33" ry="8" rx="7" cy="231" cx="255"></ellipse>
  <ellipse fill="#FFCC33" ry="7" rx="6" cy="256" cx="255"></ellipse>
  <ellipse fill="#FFCC33" ry="8" rx="7" cy="231" cx="285"></ellipse>
  <ellipse fill="#FFCC33" ry="7" rx="6" cy="256" cx="285"></ellipse>

</svg>
