<svg viewBox="0 0 200 150" xmlns="http://www.w3.org/2000/svg">
  <style>
    @keyframes bob { 0%, 100% { transform: translateY(0); } 50% { transform: translateY(-3px); } }
    @keyframes wheelSpin { 100% { transform: rotate(360deg); } }
    @keyframes cloudMove { 0% { transform: translateX(200px); } 100% { transform: translateX(-100px); } }
    .car { animation: bob 1s infinite alternate ease-in-out; transform-origin: center; }
    .wheel { animation: wheelSpin 1.5s infinite linear; transform-origin: center; }
    .cloud { animation: cloudMove 20s infinite linear; }
  </style>

  <rect width="200" height="150" fill="#e8f5e9" />
  <g fill="#FFF" opacity="0.6" class="cloud" transform="translate(56.52328907898422, 20) scale(0.43421564525008316)">
    <circle cx="20" cy="20" r="20"/><circle cx="50" cy="20" r="25"/><circle cx="80" cy="20" r="20"/>
  </g>

  <!-- Ground -->
  <rect x="0" y="115" width="200" height="35" fill="#4B4B4B" />
  <g stroke="#FFF" stroke-width="2" stroke-dasharray="15 15">
    <line x1="0" y1="130" x2="200" y2="130" />
  </g>

  <g class="car">
    <!-- Character Base -->
    <g transform="translate(100, 95)">
      <!-- Body -->
      <circle cx="0" cy="-20" r="21" fill="#8bc34a" stroke="#4caf50" stroke-width="2"/>
      
      <!-- Eyes -->
      <circle cx="-6" cy="-25" r="3" fill="#111"/>
      <circle cx="6" cy="-25" r="3" fill="#111"/>
      
      <!-- Accessory based on tier -->
      <path d="M-12,-25 Q0,-40 12,-25 L10,-15 L-10,-15 Z" fill="#ffb300" stroke="#f57c00" stroke-width="2"/>
    </g>

    <!-- Vehicle based on tier -->
    <g transform="translate(100, 110)">
     <path d="M-40,-15 L40,-15 L50,5 L-50,5 Z" fill="#ffca28" stroke="#f57c00" stroke-width="2"/>
     <circle cx="-30" cy="5" r="12" fill="#3e2723" stroke="#ffca28" stroke-width="2" class="wheel"/>
     <circle cx="30" cy="5" r="12" fill="#3e2723" stroke="#ffca28" stroke-width="2" class="wheel"/>
     <path d="M-50,5 Q-60,0 -50,-10" fill="none" stroke="#f57c00" stroke-width="2"/>
   </g>
  </g>
</svg>